<svg xmlns="http://www.w3.org/2000/svg" width="50" height="50" viewBox="0 0 50 50">
  <defs>
    <style>
      .cls-1 {
        fill: #7fffd4;
        fill-rule: evenodd;
      }
    </style>
  </defs>
  <path id="Color_Fill_1" data-name="Color Fill 1" class="cls-1" d="M24.859,11.988h0.36a5.223,5.223,0,0,0,1.319,1.079,16.484,16.484,0,0,1,4.317,5.516c1.306,3.137-.91,5.793-2.4,7.314a6.293,6.293,0,0,1-1.319,1.439H24.859v2.878c1.725,0.028,3.459.105,4.437-.6l1.679-1.8a12.82,12.82,0,0,1,2.4-.6,22.943,22.943,0,0,1,5.516-1.559v1.918a8.127,8.127,0,0,0-3,1.918c-1.462,1.962-2.42,4.868-4.676,6-1.566.783-5.894,0.36-8.153,0.36-2.556,0-5.694.435-8.034-.12-3.958-.938-6.864-3.7-6.835-8.633h7.554a0.339,0.339,0,0,0,.12.12c-0.053,3.346,2.808,3.074,6.115,3V27.336h-3.6l-0.12-.36a11.207,11.207,0,0,0,2.518-10.551c-0.457-1.409-.968-2.849-1.559-4.2-0.293-.67-0.838-1.305-1.079-2.038h0.48a7.816,7.816,0,0,0,3.357.839q0.06-1.079.12-2.158a2.141,2.141,0,0,1,1.919-.719,2.163,2.163,0,0,1,.6.719C25.042,9.458,24.876,11.018,24.859,11.988ZM9.99,24.218c0.146-1.029.974-1.665,1.439-2.4,1.21-1.908,2.418-3.776,3.6-5.635,0.477-.753.961-2.426,1.918-2.638,1.262,2.968,2.424,6.092.72,9.353a9.778,9.778,0,0,1-.6,1.319H9.99Z"/>
</svg>
